<?xml version="1.0" standalone="no"?>
<!DOCTYPE svg PUBLIC "-//W3C//DTD SVG 20010904//EN"
 "http://www.w3.org/TR/2001/REC-SVG-20010904/DTD/svg10.dtd">
<svg version="1.0" xmlns="http://www.w3.org/2000/svg"
 width="1024.000000pt" height="1024.000000pt" viewBox="0 0 1024.000000 1024.000000"
 preserveAspectRatio="xMidYMid meet">

<g transform="translate(0.000000,1024.000000) scale(0.100000,-0.100000)"
fill="#1DB954" stroke="none">
<path d="M0 5120 l0 -5120 5120 0 5120 0 0 5120 0 5120 -5120 0 -5120 0 0
-5120z m2975 855 c75 -20 157 -68 200 -118 142 -165 163 -422 50 -615 -93
-159 -229 -231 -415 -219 -150 9 -253 64 -329 178 -132 198 -114 476 43 655
98 112 286 161 451 119z m-1111 -322 c120 -181 222 -329 225 -331 3 -1 6 145
6 325 l0 328 82 0 83 0 2 -468 3 -467 -90 0 -90 0 -200 304 c-110 167 -205
312 -212 322 -9 15 -12 -50 -12 -303 l-1 -323 -90 0 -90 0 0 470 0 470 83 0
82 0 219 -327z m2236 243 l0 -81 -140 3 -140 4 0 -391 0 -391 -85 0 -85 0 0
391 0 390 -135 -3 -135 -3 0 81 0 81 360 0 360 0 0 -81z m730 4 l0 -80 -220 0
-220 0 0 -125 0 -125 200 0 201 0 -3 -66 -3 -66 -197 2 -198 1 0 -126 0 -125
215 0 215 0 0 -75 0 -75 -300 0 -300 0 0 470 0 470 305 0 305 0 0 -80z m388
-258 c61 -186 115 -352 118 -370 4 -17 9 -32 13 -32 3 0 19 42 34 93 15 50 69
217 120 370 l91 277 88 0 c48 0 88 -2 88 -4 0 -13 -228 -680 -287 -839 l-36
-98 -99 3 -100 3 -35 95 c-72 196 -283 817 -283 832 0 5 40 8 88 8 l88 0 112
-338z m1041 241 c48 -138 234 -662 270 -760 l31 -83 -95 0 -94 0 -38 118 -38
117 -180 -1 -180 0 -40 -117 -40 -117 -92 0 -92 0 31 83 c17 45 92 256 166
470 l135 387 111 0 112 0 33 -97z m551 -220 c0 -191 4 -333 11 -356 13 -50 61
-103 105 -117 55 -19 177 -9 211 16 81 60 93 122 93 492 l0 282 86 0 86 0 -4
-347 c-3 -288 -7 -355 -20 -391 -57 -153 -195 -230 -393 -219 -112 6 -183 29
-241 80 -54 47 -88 112 -103 192 -6 34 -11 189 -11 372 l0 313 90 0 90 0 0
-317z m910 -78 l0 -396 205 3 205 3 0 -77 0 -78 -290 0 -290 0 0 470 0 470 85
0 85 0 0 -395z m1080 311 l0 -81 -137 0 -138 0 -3 -387 -2 -388 -85 0 -85 0 0
388 1 387 -136 3 -135 3 0 77 0 78 360 1 360 0 0 -81z m-6720 -1371 c0 -47 2
-85 5 -85 3 0 15 9 27 20 21 20 70 26 103 14 32 -13 45 -59 45 -164 0 -99 0
-101 -22 -98 -22 3 -23 8 -28 111 -5 112 -11 126 -53 127 -55 0 -77 -46 -77
-161 0 -72 -2 -79 -20 -79 -19 0 -20 7 -20 200 0 193 1 200 20 200 18 0 20 -7
20 -85z m843 -85 c27 -85 51 -162 54 -170 4 -12 68 176 102 300 6 21 14 26 49
28 l42 3 -2 -193 c-3 -192 -3 -193 -25 -196 l-23 -3 -1 168 -1 168 -55 -167
c-54 -165 -55 -168 -83 -168 -28 0 -30 3 -73 143 -25 78 -49 156 -53 172 -6
20 -10 -26 -12 -142 -2 -165 -3 -173 -22 -173 -19 0 -20 7 -20 198 l0 199 37
-6 37 -6 49 -155z m1525 -40 c4 0 47 47 96 104 67 79 93 104 112 104 13 0 24
-3 24 -6 0 -3 -32 -40 -71 -83 -43 -49 -68 -83 -63 -91 4 -6 43 -58 86 -115
77 -101 79 -103 51 -103 -24 1 -39 15 -98 95 -38 52 -71 95 -74 95 -3 0 -20
-14 -38 -32 -30 -29 -33 -37 -33 -95 0 -56 -2 -63 -20 -63 -19 0 -20 7 -20
194 0 177 2 195 18 198 15 3 17 -8 20 -99 1 -57 6 -103 10 -103z m1402 10 l0
-200 -25 0 -25 0 0 200 0 200 25 0 25 0 0 -200z m638 3 c-3 -197 -3 -198 -25
-201 -19 -3 -23 1 -23 23 l0 26 -26 -20 c-18 -14 -41 -21 -69 -21 -52 0 -90
33 -105 92 -11 39 -9 56 12 111 21 55 112 75 162 36 l26 -20 0 85 c0 85 0 86
25 86 l25 0 -2 -197z m938 9 l58 -173 60 175 c52 152 63 175 83 179 13 2 23 2
23 -2 0 -3 -30 -92 -66 -198 l-67 -193 -34 0 c-18 0 -36 6 -38 13 -2 6 -33 94
-68 194 -60 173 -62 182 -43 186 12 1 24 1 27 -2 4 -4 33 -84 65 -179z m894
-12 c0 -193 -1 -200 -20 -200 -19 0 -20 7 -20 200 0 193 1 200 20 200 19 0 20
-7 20 -200z m-6340 170 c0 -18 -7 -20 -65 -20 l-65 0 0 -176 0 -175 -22 3
c-23 3 -23 5 -26 176 l-2 172 -60 0 c-53 0 -60 2 -60 20 0 19 7 20 150 20 143
0 150 -1 150 -20z m1898 -22 c-3 -25 -34 -36 -50 -20 -17 17 -1 42 27 42 22 0
26 -4 23 -22z m4592 -39 c0 -40 1 -41 30 -37 24 4 30 1 30 -14 0 -13 -8 -18
-30 -18 l-31 0 3 -97 3 -98 28 0 c19 1 27 -4 27 -17 0 -14 -8 -18 -39 -18 -59
0 -71 23 -71 137 0 93 0 93 -25 93 -18 0 -25 5 -25 19 0 14 6 17 25 13 23 -4
25 -1 25 30 0 39 6 48 32 48 14 0 18 -8 18 -41z m-5170 -131 c0 -113 11 -138
60 -138 49 0 65 31 68 135 3 82 6 94 23 98 18 5 19 -2 19 -134 0 -132 -1 -139
-20 -139 -15 0 -20 7 -20 27 l0 26 -24 -22 c-36 -33 -89 -32 -124 2 -25 25
-27 35 -30 122 -4 109 -1 125 28 125 19 0 20 -6 20 -102z m405 87 c20 -4 55
-48 55 -70 0 -14 -39 -3 -45 14 -3 10 -19 25 -36 32 -43 17 -83 2 -87 -33 -3
-25 1 -28 55 -43 95 -26 108 -35 111 -82 3 -35 -1 -44 -22 -58 -64 -42 -165
-22 -185 36 -9 25 -8 29 9 29 11 0 25 -10 31 -22 16 -31 28 -38 70 -38 38 0
59 14 59 42 0 21 -22 34 -77 43 -59 9 -93 38 -93 79 0 41 17 64 55 75 29 8 42
8 100 -4z m1097 -13 c-4 -27 9 -28 33 -2 24 27 94 27 126 1 23 -18 24 -25 24
-133 0 -110 -1 -113 -22 -116 -23 -3 -23 -2 -23 102 0 114 -9 136 -56 136 -62
0 -84 -43 -84 -167 0 -66 -2 -73 -20 -73 -19 0 -20 7 -20 138 0 138 0 139 23
137 16 -1 21 -7 19 -23z m628 -75 c13 -51 26 -97 29 -104 4 -7 22 37 40 98 30
97 37 110 55 107 17 -2 26 -20 48 -103 16 -55 31 -107 34 -115 3 -8 21 37 38
100 30 108 41 126 68 113 3 -2 -2 -31 -12 -65 -10 -35 -28 -96 -40 -135 -20
-69 -22 -73 -50 -73 -31 0 -32 2 -72 153 -6 26 -15 47 -18 47 -3 0 -18 -45
-34 -101 -27 -95 -30 -100 -54 -97 -23 3 -28 13 -58 118 -49 171 -47 158 -20
153 21 -4 27 -16 46 -96z m1382 -51 c-3 -167 -12 -199 -67 -222 -50 -20 -97
-17 -136 9 -40 26 -52 67 -20 67 11 0 22 -9 26 -19 7 -24 57 -45 87 -38 48 12
61 31 65 93 3 44 1 55 -7 42 -17 -27 -74 -41 -115 -28 -89 30 -112 161 -38
220 38 30 107 27 138 -5 l25 -24 0 28 c0 23 4 27 23 26 22 -2 22 -3 19 -149z
m1208 48 c0 -112 9 -134 56 -134 63 0 84 41 84 161 0 72 2 78 20 76 19 -1 20
-8 20 -139 0 -131 -1 -138 -20 -138 -15 0 -20 7 -20 25 0 14 -4 25 -10 25 -5
0 -10 -5 -10 -10 0 -17 -57 -37 -90 -32 -56 8 -69 35 -70 152 -1 58 -1 107 -1
110 1 3 10 6 21 6 19 0 20 -7 20 -102z m-5479 68 c21 -18 33 -41 39 -70 l7
-42 -103 0 c-98 0 -104 -1 -104 -20 0 -12 11 -32 25 -45 33 -34 88 -34 119 0
21 22 56 34 56 19 0 -21 -46 -65 -78 -73 -109 -31 -201 77 -157 185 20 50 57
73 117 74 38 0 54 -6 79 -28z m1339 -107 l0 -135 -25 0 -25 0 0 135 0 135 25
0 25 0 0 -135z m266 117 c12 -9 27 -27 33 -39 10 -20 9 -23 -10 -23 -11 0 -30
11 -41 25 -26 34 -76 34 -107 1 -18 -19 -23 -36 -23 -76 0 -64 28 -100 78
-100 31 0 64 21 64 41 0 5 9 9 20 9 27 0 25 -26 -5 -55 -18 -19 -35 -25 -70
-25 -66 0 -100 21 -120 74 -27 70 -7 143 47 173 34 18 109 16 134 -5z m1105 2
c53 -27 74 -113 44 -178 -43 -90 -187 -88 -225 4 -7 18 -10 52 -8 82 4 42 11
57 37 80 37 33 102 38 152 12z m868 0 c25 -18 51 -71 51 -104 0 -19 -6 -20
-100 -20 -99 0 -100 0 -100 -24 0 -60 101 -88 145 -40 13 14 31 24 39 22 14
-3 13 -7 -4 -35 -48 -79 -181 -59 -215 31 -27 70 -7 143 47 173 33 18 109 16
137 -3z m960 1 c27 -14 44 -42 57 -97 l6 -28 -106 0 c-100 0 -106 -1 -106 -20
0 -12 11 -32 25 -45 33 -34 87 -34 121 0 24 25 54 33 54 16 0 -4 -9 -20 -20
-34 -26 -33 -77 -48 -126 -37 -144 33 -125 260 22 260 25 0 58 -7 73 -15z
m785 -6 c25 -20 26 -23 26 -135 0 -107 -1 -114 -20 -114 -16 0 -20 7 -20 31
l0 31 -31 -26 c-62 -52 -159 -26 -159 43 0 39 38 68 98 76 77 11 82 14 82 46
0 22 -6 32 -24 39 -33 12 -79 -2 -91 -28 -13 -29 -55 -31 -48 -2 15 58 131 83
187 39z"/>
<path d="M2799 5830 c-63 -11 -101 -32 -142 -81 -50 -58 -77 -144 -77 -244 0
-138 43 -234 132 -292 38 -25 50 -28 133 -28 83 0 95 3 132 27 54 36 89 83
114 154 28 78 24 235 -8 305 -55 123 -159 181 -284 159z"/>
<path d="M6107 5820 c-55 -162 -128 -392 -125 -397 1 -5 62 -6 133 -3 l131 5
-67 205 c-37 113 -69 198 -72 190z"/>
<path d="M6301 4424 c-31 -39 -29 -117 4 -149 54 -54 135 -12 135 71 0 89 -90
140 -139 78z"/>
<path d="M6644 4442 c-31 -20 -45 -102 -24 -142 5 -10 23 -23 40 -29 86 -30
146 75 84 148 -26 31 -73 42 -100 23z"/>
<path d="M2402 4427 c-12 -13 -22 -31 -22 -40 0 -15 12 -17 79 -17 l80 0 -11
30 c-18 54 -87 68 -126 27z"/>
<path d="M5131 4433 c-24 -20 -37 -77 -27 -118 10 -39 42 -65 79 -65 106 0
111 189 5 198 -22 2 -42 -3 -57 -15z"/>
<path d="M5997 4438 c-9 -7 -21 -25 -26 -40 l-11 -28 80 0 c73 0 80 2 80 20 0
47 -82 78 -123 48z"/>
<path d="M6955 4425 c-45 -44 -35 -55 56 -55 79 0 80 0 74 23 -17 57 -88 75
-130 32z"/>
<path d="M7815 4350 c-11 -5 -37 -11 -57 -15 -61 -10 -75 -68 -20 -82 40 -10
75 8 96 50 20 42 13 60 -19 47z"/>
</g>
</svg>
